# xmcd CD database file
#
# Track frame offsets:
#	150
#	16713
#	33714
#	42669
#	56833
#	74561
#	89356
#	103670
#	118755
#	129527
#	146421
#	155395
#	168440
#	186427
#	198121
#	220342
#	240712
#	262348
#	278592
#	291648
#	311289
#
# Disc length: 4384 seconds
#
# Revision: 0
# Processed by: cddbd v1.5.2PL0 Copyright (c) Steve Scherf et al.
# Submitted via: Feurio! 1.68 - http://www.feurio.com
#
DISCID=48111e15
DTITLE=Charles Aznavour - Charles Aznavour chante en allemand - les meilleurs 
DTITLE=moments
DYEAR=1900
DGENRE=
TTITLE0=Du lässt dich geh'n (Tu t'laisses aller)
TTITLE1=Spiel', Zigeuner (Les deux guitares)
TTITLE2=Afrika song (La marche des anges) (Inédit en CD)
TTITLE3=Man muss verstehen (Il faut savoir) (Inédit en CD)
TTITLE4=Wie es war (Tu n'as plus)
TTITLE5=Ich sah mich als Star (Je m'voyais déjà) (Inédit en CD)
TTITLE6=La bohème (Version en allemand)
TTITLE7=Das (Ca)
TTITLE8=For me, formidable (Version en allemand)
TTITLE9=La mamma (Version en allemand)
TTITLE10=Geliebte (Ma mie) (Inédit en CD)
TTITLE11=Und trotzdem lieb' ich sie (Je l'aimerai toujours) (Inédit en CD)
TTITLE12=Mourir d'aimer (Version en allemand)
TTITLE13=Sie (She)
TTITLE14=Wie sie sagen (Comme ils disent)
TTITLE15=Tanz wange an wange mit mir (Les plaisirs démodés)
TTITLE16=Wieder allein (Me voilà seul)
TTITLE17=Unvergesslich (Inoubliable)
TTITLE18=Die schöne Zeit (Les bons moments)
TTITLE19=Du gegen mich (Toi contre moi)
TTITLE20=Ich klamm're mich an dich (Je me raccroche à toi)
EXTD=
EXTT0=
EXTT1=
EXTT2=
EXTT3=
EXTT4=
EXTT5=
EXTT6=
EXTT7=
EXTT8=
EXTT9=
EXTT10=
EXTT11=
EXTT12=
EXTT13=
EXTT14=
EXTT15=
EXTT16=
EXTT17=
EXTT18=
EXTT19=
EXTT20=
PLAYORDER=
